<?xml version="1.0" encoding="utf-8"?>
<!-- Generator: Adobe Illustrator 24.3.0, SVG Export Plug-In . SVG Version: 6.00 Build 0)  -->
<svg version="1.1" id="Layer_1" xmlns="http://www.w3.org/2000/svg" xmlns:xlink="http://www.w3.org/1999/xlink" x="0px" y="0px"
	 viewBox="0 0 24 24" style="enable-background:new 0 0 24 24;" xml:space="preserve">
<style type="text/css">
	.st0{fill:none;}
	.st1{fill:#A3A2A2;}
</style>
<path class="st0" d="M0,0h24v24H0V0z M18.3,6l-2.8,5L18.3,6z"/>
<path class="st1" d="M7.1,20c-1.3,0-2.4,0.9-2.4,2s1.1,2,2.4,2s2.4-0.9,2.4-2S8.5,20,7.1,20z M19,20c-1.3,0-2.4,0.9-2.4,2
	s1.1,2,2.4,2s2.4-0.9,2.4-2S20.4,20,19,20z M7.3,17.5l0-0.1l1.1-1.5h8.9c0.9,0,1.7-0.4,2.1-0.9L24,8.7l-2.1-0.9h0l-1.3,1.8l-3.3,4.5
	H9l-0.2-0.2L6.1,9.6L5,7.8L3.9,6H0v1.8h2.4l4.3,6.8l-1.6,2.2c-0.2,0.3-0.3,0.5-0.3,0.9c0,1,1.1,1.8,2.4,1.8h14.3v-1.8H7.6
	C7.5,17.7,7.3,17.6,7.3,17.5z"/>
</svg>
