<svg id="Instagram" xmlns="http://www.w3.org/2000/svg" width="50.409" height="50.409" viewBox="0 0 50.409 50.409">
  <path id="Path_3" data-name="Path 3" d="M25.2,4.481c6.721,0,7.561,0,10.082.28a12.989,12.989,0,0,1,4.761.84,9.835,9.835,0,0,1,4.761,4.761,12.989,12.989,0,0,1,.84,4.761c0,2.52.28,3.361.28,10.082s0,7.561-.28,10.082a12.989,12.989,0,0,1-.84,4.761,9.835,9.835,0,0,1-4.761,4.761,12.989,12.989,0,0,1-4.761.84c-2.52,0-3.361.28-10.082.28s-7.561,0-10.082-.28a12.989,12.989,0,0,1-4.761-.84A9.835,9.835,0,0,1,5.6,40.047a12.989,12.989,0,0,1-.84-4.761c0-2.52-.28-3.361-.28-10.082s0-7.561.28-10.082a12.989,12.989,0,0,1,.84-4.761,10.058,10.058,0,0,1,1.96-2.8,4.735,4.735,0,0,1,2.8-1.96,12.989,12.989,0,0,1,4.761-.84c2.52-.28,3.361-.28,10.082-.28M25.2,0c-6.721,0-7.841,0-10.362.28A17.289,17.289,0,0,0,8.682,1.4,10.963,10.963,0,0,0,4.2,4.2,10.963,10.963,0,0,0,1.4,8.682,12.76,12.76,0,0,0,.28,14.843C0,17.363,0,18.483,0,25.2s0,7.841.28,10.362A17.289,17.289,0,0,0,1.4,41.728a10.963,10.963,0,0,0,2.8,4.481,10.963,10.963,0,0,0,4.481,2.8,17.289,17.289,0,0,0,6.161,1.12c2.52.28,3.641.28,10.362.28s7.841,0,10.362-.28a17.289,17.289,0,0,0,6.161-1.12,11.749,11.749,0,0,0,7.281-7.281,17.289,17.289,0,0,0,1.12-6.161c0-2.8.28-3.641.28-10.362s0-7.841-.28-10.362a17.289,17.289,0,0,0-1.12-6.161,10.963,10.963,0,0,0-2.8-4.481,10.963,10.963,0,0,0-4.481-2.8A17.289,17.289,0,0,0,35.566.28C33.046,0,31.926,0,25.2,0m0,12.322A12.675,12.675,0,0,0,12.322,25.2,12.882,12.882,0,1,0,25.2,12.322m0,21.284a8.252,8.252,0,0,1-8.4-8.4,8.252,8.252,0,0,1,8.4-8.4,8.252,8.252,0,0,1,8.4,8.4,8.252,8.252,0,0,1-8.4,8.4M38.647,8.682a3.081,3.081,0,1,0,3.081,3.081,3.108,3.108,0,0,0-3.081-3.081" fill="#fff" fill-rule="evenodd"/>
</svg>
