<svg xmlns="http://www.w3.org/2000/svg" width="57.01" height="52" viewBox="0 0 57.01 52">
  <g id="Twitter" transform="translate(1.01)">
    <rect id="Rectangle_393" data-name="Rectangle 393" width="56" height="52" fill="none"/>
    <path id="Path_2" data-name="Path 2" d="M56.053,48.241c21.537,0,33.256-17.736,33.256-33.256V13.4a25.745,25.745,0,0,0,5.7-6.018,26.292,26.292,0,0,1-6.651,1.9A12.323,12.323,0,0,0,93.426,2.95,29.051,29.051,0,0,1,86.142,5.8,11.311,11.311,0,0,0,77.59,2,11.9,11.9,0,0,0,65.871,13.719a6.175,6.175,0,0,0,.317,2.534A32.745,32.745,0,0,1,42.117,3.9a12.129,12.129,0,0,0-1.584,6.018A12.584,12.584,0,0,0,45.6,19.736a10.677,10.677,0,0,1-5.384-1.584h0a11.575,11.575,0,0,0,9.5,11.4,9.764,9.764,0,0,1-3.167.317,5.39,5.39,0,0,1-2.217-.317A12,12,0,0,0,55.42,37.79a23.913,23.913,0,0,1-14.569,5.068A8.769,8.769,0,0,1,38,42.54a29.9,29.9,0,0,0,18.053,5.7" transform="translate(-39.01 -0.001)" fill="#fff" fill-rule="evenodd"/>
  </g>
</svg>
